<svg width="24" height="23" viewBox="0 0 24 23" fill="none" xmlns="http://www.w3.org/2000/svg">
<g clip-path="url(#clip0_1_5480)">
<path d="M6.81234 8.40401L9.49406 8.36749C9.62344 8.36554 9.74391 8.40352 9.84609 8.46974C10.4016 8.80376 10.9261 9.18403 11.4141 9.61299C11.6888 9.85499 11.9545 10.1135 12.2105 10.3901C13.1325 8.90211 14.228 7.39173 15.3755 5.96996C16.8708 4.11777 18.465 2.4058 19.8858 1.08288C20.01 0.967483 20.1656 0.911002 20.3198 0.911002L22.3927 0.907594C22.7536 0.907594 23.0466 1.21191 23.0466 1.58683C23.0466 1.77477 22.9734 1.94422 22.8548 2.0674C20.9527 4.26433 19.0017 6.77969 17.2336 9.35737C15.5967 11.7442 14.1141 14.186 12.9713 16.4789C12.8062 16.8114 12.4125 16.9419 12.0923 16.7705C11.9637 16.7019 11.8608 16.5905 11.8003 16.454C11.1741 15.0629 10.4278 13.7858 9.53953 12.6464C8.65219 11.5085 7.61766 10.4997 6.41344 9.64123C6.11578 9.4304 6.03937 9.00826 6.24234 8.69907C6.37453 8.49749 6.59344 8.39378 6.81234 8.40401ZM2.93203 0H15.5958C14.6986 0.96018 13.9214 1.89699 13.2534 2.79728H2.93203C2.86547 2.79728 2.805 2.82503 2.76141 2.86837C2.71749 2.9161 2.69298 2.97958 2.69297 3.0456V19.9539C2.69297 20.0192 2.72109 20.0805 2.76516 20.1268C2.81016 20.173 2.86969 20.2027 2.93203 20.2027H21.0675C21.128 20.2027 21.187 20.1725 21.2325 20.1258C21.278 20.0786 21.307 20.0167 21.307 19.9539V10.3998C22.283 9.98061 23.2008 9.54872 24 9.14313V19.9539C24 20.7885 23.6667 21.5519 23.1361 22.1031C22.605 22.6548 21.8709 23 21.0675 23H2.93203C2.12906 23 1.39312 22.6562 0.861562 22.1041C0.331875 21.5539 0 20.7924 0 19.9539V3.0456C0 2.21056 0.33 1.45001 0.860156 0.898829L0.865312 0.893473C1.39594 0.342782 2.12812 0 2.93203 0Z" fill="white"/>
</g>
<defs>
<clipPath id="clip0_1_5480">
<rect width="24" height="23" fill="white"/>
</clipPath>
</defs>
</svg>
