<svg width="22" height="21" viewBox="0 0 22 21" fill="none" xmlns="http://www.w3.org/2000/svg">
<path d="M8.94976 0.5H8.95262V0.501169C11.4232 0.501836 13.6602 1.43623 15.2791 2.94609C16.8953 4.45379 17.8965 6.53794 17.8981 8.8398H17.8993V8.8453V8.85198H17.8981C17.8972 9.7797 17.7339 10.6725 17.4337 11.5051C17.3833 11.6448 17.3307 11.779 17.2766 11.9073V11.9084C17.0177 12.5195 16.6831 13.0971 16.2835 13.6291L21.4903 17.993L21.4935 17.9956L21.5216 18.02L21.5236 18.0218C21.8176 18.2828 21.9776 18.6322 21.9979 18.9868C22.0176 19.3374 21.9007 19.696 21.6436 19.9836L21.6416 19.9863L21.6103 20.0202L21.604 20.026L21.5779 20.0527L21.575 20.0562C21.2948 20.3304 20.9208 20.4793 20.5401 20.498C20.1647 20.5165 19.7798 20.4078 19.4711 20.1678L19.4684 20.1659L19.4319 20.1367L19.4267 20.1327L14.1012 15.6696C13.9437 15.7731 13.7829 15.8714 13.6201 15.9642C13.3994 16.0903 13.1708 16.209 12.9375 16.3173C11.7381 16.8752 10.3828 17.1891 8.94993 17.1891V17.1903H8.94707V17.1891C6.47652 17.1884 4.23908 16.254 2.62022 14.7442C1.00351 13.2365 0.00286461 11.152 0.00125327 8.85081H0V8.8453V8.84263H0.00125327C0.00196942 6.53894 1.00405 4.45262 2.62327 2.94309C4.24016 1.43623 6.47527 0.502671 8.94385 0.501169V0.5H8.94976ZM8.95262 2.37147V2.37263H8.94976H8.94385V2.37147C7.03065 2.37263 5.29648 3.09768 4.04107 4.26781C2.78583 5.43793 2.00755 7.05664 2.00702 8.8428H2.00827V8.84547V8.85098H2.00702C2.00827 10.635 2.7853 12.2512 4.04071 13.4221C5.29559 14.5928 7.03154 15.3185 8.94689 15.3188V15.3176H8.94976H8.95566V15.3188C10.8689 15.3176 12.6023 14.5929 13.8581 13.4225C15.1133 12.2523 15.8916 10.6341 15.892 8.84814H15.8909V8.84547V8.83996H15.892C15.8909 7.05598 15.1131 5.43893 13.8584 4.26831C12.6036 3.09768 10.8681 2.37197 8.95262 2.37147Z" fill="#6A6A6A"/>
</svg>
